<?xml version="1.0" standalone="no"?>
<!DOCTYPE svg PUBLIC "-//W3C//DTD SVG 20010904//EN"
 "http://www.w3.org/TR/2001/REC-SVG-20010904/DTD/svg10.dtd">
<svg version="1.0" xmlns="http://www.w3.org/2000/svg"
 width="310.000000pt" height="310.000000pt" viewBox="0 0 310.000000 310.000000"
 preserveAspectRatio="xMidYMid meet">
<metadata>
Created by potrace 1.11, written by Peter Selinger 2001-2013
</metadata>
<g transform="translate(0.000000,310.000000) scale(0.100000,-0.100000)"
fill="#000000" stroke="none">
<path d="M1442 2734 c-103 -27 -220 -125 -261 -220 -48 -107 -51 -249 -9 -357
30 -76 111 -166 187 -208 l59 -32 -2 -176 -1 -176 -210 -207 c-116 -113 -236
-232 -268 -262 l-57 -56 -255 0 -255 0 0 -335 0 -335 335 0 335 0 1 58 c0 31
0 119 -1 195 l0 138 69 70 c38 38 74 69 80 69 6 0 10 3 9 8 -2 4 29 39 69 77
39 39 118 116 175 172 l104 102 252 -250 252 -250 0 -195 0 -194 335 0 335 0
0 95 c1 52 1 174 1 270 0 96 0 207 -1 245 l0 70 -255 0 -254 0 -264 260 -264
261 0 174 0 175 46 21 c25 12 73 49 106 83 63 63 98 124 114 198 9 39 8 192
-2 228 -14 54 -59 123 -111 175 -113 112 -247 149 -394 109z"/>
</g>
</svg>
